# xmcd
#
# Track frame offsets: 
#        150
#        10762
#        20606
#        29319
#        41271
#        52525
#        63172
#        74957
#        90178
#        100204
#        108941
#        117656
#        127686
#        139622
#        148902
#        160871
#        171731
#        181943
#        193339
#        206359
#        218266
#        228657
#        241788
#        254908
#
# Disc length: 3541 seconds
#
# Revision: 1
# Processed by: cddbd v1.5.2PL0 Copyright (c) Steve Scherf et al.
# Submitted via: ExactAudioCopyFreeDBPlugin 1.0
#
DISCID=4e0dd318
DTITLE=VVAA - The real thing: the songs of Ashford, Simpson and Armstead
DYEAR=1900
DGENRE=Soul
TTITLE0=THE CRYSTALS featuring LA LA BROOKS - Are you trying to get ri
TTITLE0=d of me baby
TTITLE1=BETTY EVERETT - Too hot to hold
TTITLE2=THE SHIRELLES - Look away
TTITLE3=THE DIPLOMATS - Love ain't what it used to be
TTITLE4=JO ANN and TROY - Same old feeling
TTITLE5=MAXINE BROWN - You're in love
TTITLE6=BETTY LaVETTE - Only your love can save me
TTITLE7=MARY LOVE - Baby I'll come
TTITLE8=ARETHA FRANKLIN - Cry like a baby
TTITLE9=CHUCK JACKSON and MAXINE BROWN - I'm satisfied
TTITLE10=MARY LOVE - Dance children dance
TTITLE11=TINA BRITT - You're absolutely right
TTITLE12=THE APOLLAS - Mr. Creator
TTITLE13=CANDY and THE KISSES - Looky, looky (what I got)
TTITLE14=B. J. THOMAS - Never had it so good
TTITLE15=BETTY EVERETT - The shoe won't fit
TTITLE16=THE CHIFFONS - The real thing
TTITLE17=THE JEWELS - Smokie Joe's
TTITLE18=MARY KNIGHT - Say it again
TTITLE19=DORIS TROY - Please little angel
TTITLE20=RONNIE MILSAP - I saw pity in the eyes of a friend
TTITLE21=VERNON GARRETT - Runing out
TTITLE22=THE COASTERS - Let's go get stoned
TTITLE23=SANDY NELSON - I don't need no doctor
EXTD=
EXTT0=
EXTT1=
EXTT2=
EXTT3=
EXTT4=
EXTT5=
EXTT6=
EXTT7=
EXTT8=
EXTT9=
EXTT10=
EXTT11=
EXTT12=
EXTT13=
EXTT14=
EXTT15=
EXTT16=
EXTT17=
EXTT18=
EXTT19=
EXTT20=
EXTT21=
EXTT22=
EXTT23=
PLAYORDER=
